<svg width="57" height="64" viewBox="0 0 57 64" fill="none" xmlns="http://www.w3.org/2000/svg">
<path d="M50.2654 7.18428H37.2352C35.9259 3.56823 32.4969 0.949707 28.4444 0.949707C24.392 0.949707 20.9629 3.56823 19.6537 7.18428H6.62343C4.96992 7.18428 3.38413 7.84113 2.21492 9.01034C1.04571 10.1796 0.388855 11.7653 0.388855 13.4188V57.0609C0.388855 58.7144 1.04571 60.3001 2.21492 61.4694C3.38413 62.6386 4.96992 63.2954 6.62343 63.2954H50.2654C51.9189 63.2954 53.5047 62.6386 54.6739 61.4694C55.8431 60.3001 56.5 58.7144 56.5 57.0609V13.4188C56.5 11.7653 55.8431 10.1796 54.6739 9.01034C53.5047 7.84113 51.9189 7.18428 50.2654 7.18428ZM28.4444 7.18428C29.2712 7.18428 30.0641 7.51271 30.6487 8.09731C31.2333 8.68191 31.5617 9.47481 31.5617 10.3016C31.5617 11.1283 31.2333 11.9212 30.6487 12.5058C30.0641 13.0904 29.2712 13.4188 28.4444 13.4188C27.6177 13.4188 26.8248 13.0904 26.2402 12.5058C25.6556 11.9212 25.3271 11.1283 25.3271 10.3016C25.3271 9.47481 25.6556 8.68191 26.2402 8.09731C26.8248 7.51271 27.6177 7.18428 28.4444 7.18428ZM12.858 19.6534H44.0309V13.4188H50.2654V57.0609H6.62343V13.4188H12.858V19.6534ZM14.4166 39.9158L19.0926 35.2399L25.3271 41.4744L39.3549 27.4466L44.0309 32.1226L25.3271 50.8263L14.4166 39.9158Z" fill="#0D6EFD"/>
</svg>
